# xmcd
#
# Track frame offsets:
#	150
#	13175
#	27934
#	51931
#	84579
#	97111
#	125324
#	149442
#	160359
#	178549
#	201368
#	223037
#	243021
#
# Disc length: 3605 seconds
#
# Revision: 0
# Processed by: cddbd v1.5.1PL2 Copyright (c) Steve Scherf et al.
# Submitted via: dBpowerAMP V4.0
#
DISCID=b70e130d
DTITLE=Glenn Kaiser -  Spontaneous Combustion
DYEAR=1994
DGENRE=Blues
TTITLE0=Everybody Understands the Blues
TTITLE1=Trouble
TTITLE2=Through the Night
TTITLE3=Queen Bee
TTITLE4=Shufflin' the Deck
TTITLE5=If I Leave This World Tomorrow
TTITLE6=Ain't Much Difference
TTITLE7=Got a Hold On You
TTITLE8=Where Would I Be
TTITLE9=Jump Start
TTITLE10=Queen of My Heart
TTITLE11=Satellite Dish
TTITLE12=Spontaneous Combustion
EXTD=submitted by Esdras
EXTT0=
EXTT1=
EXTT2=
EXTT3=
EXTT4=
EXTT5=
EXTT6=
EXTT7=
EXTT8=
EXTT9=
EXTT10=
EXTT11=
EXTT12=
PLAYORDER=
